<svg width="32" height="32" viewBox="0 0 32 32" fill="none" xmlns="http://www.w3.org/2000/svg">
<g clip-path="url(#clip0_52_61)">
<path d="M16.9998 13C16.9998 12.7348 16.8944 12.4804 16.7069 12.2929C16.5194 12.1054 16.265 12 15.9998 12C15.7346 12 15.4802 12.1054 15.2927 12.2929C15.1052 12.4804 14.9998 12.7348 14.9998 13V20.586L12.7078 18.292C12.6148 18.199 12.5044 18.1253 12.383 18.075C12.2615 18.0246 12.1313 17.9987 11.9998 17.9987C11.8683 17.9987 11.7381 18.0246 11.6166 18.075C11.4952 18.1253 11.3848 18.199 11.2918 18.292C11.1988 18.385 11.1251 18.4954 11.0748 18.6168C11.0244 18.7383 10.9985 18.8685 10.9985 19C10.9985 19.1315 11.0244 19.2617 11.0748 19.3832C11.1251 19.5046 11.1988 19.615 11.2918 19.708L15.2918 23.708C15.3847 23.8011 15.495 23.875 15.6165 23.9254C15.738 23.9758 15.8683 24.0018 15.9998 24.0018C16.1313 24.0018 16.2616 23.9758 16.3831 23.9254C16.5046 23.875 16.6149 23.8011 16.7078 23.708L20.7078 19.708C20.8008 19.615 20.8745 19.5046 20.9248 19.3832C20.9752 19.2617 21.0011 19.1315 21.0011 19C21.0011 18.8685 20.9752 18.7383 20.9248 18.6168C20.8745 18.4954 20.8008 18.385 20.7078 18.292C20.6148 18.199 20.5044 18.1253 20.383 18.075C20.2615 18.0246 20.1313 17.9987 19.9998 17.9987C19.8683 17.9987 19.7381 18.0246 19.6166 18.075C19.4952 18.1253 19.3848 18.199 19.2918 18.292L16.9998 20.586V13Z" fill="white"/>
<path d="M28 28V9L19 0H8C6.93913 0 5.92172 0.421427 5.17157 1.17157C4.42143 1.92172 4 2.93913 4 4V28C4 29.0609 4.42143 30.0783 5.17157 30.8284C5.92172 31.5786 6.93913 32 8 32H24C25.0609 32 26.0783 31.5786 26.8284 30.8284C27.5786 30.0783 28 29.0609 28 28ZM19 6C19 6.79565 19.3161 7.55871 19.8787 8.12132C20.4413 8.68393 21.2043 9 22 9H26V28C26 28.5304 25.7893 29.0391 25.4142 29.4142C25.0391 29.7893 24.5304 30 24 30H8C7.46957 30 6.96086 29.7893 6.58579 29.4142C6.21071 29.0391 6 28.5304 6 28V4C6 3.46957 6.21071 2.96086 6.58579 2.58579C6.96086 2.21071 7.46957 2 8 2H19V6Z" fill="white"/>
</g>
<defs>
<clipPath id="clip0_52_61">
<rect width="32" height="32" fill="white"/>
</clipPath>
</defs>
</svg>
