<svg width="182" height="175" viewBox="0 0 182 175" fill="none" xmlns="http://www.w3.org/2000/svg">
<path d="M0.796875 144.25H4.34375L9.9375 161.188C10.0312 161.49 10.1146 161.776 10.1875 162.047C10.2708 162.318 10.349 162.589 10.4219 162.859H10.5312C10.6042 162.589 10.6823 162.312 10.7656 162.031C10.849 161.74 10.9375 161.458 11.0312 161.188L16.6719 144.25H19.9844L12.1562 167.125H8.64062L0.796875 144.25ZM21.4263 167V151.422H24.6919V167H21.4263ZM21.0825 146.391C21.0825 145.859 21.2492 145.417 21.5825 145.062C21.9263 144.698 22.421 144.516 23.0669 144.516C23.7023 144.516 24.1867 144.698 24.52 145.062C24.8638 145.417 25.0356 145.859 25.0356 146.391C25.0356 146.922 24.8638 147.37 24.52 147.734C24.1763 148.089 23.6867 148.266 23.0513 148.266C22.4158 148.266 21.9263 148.089 21.5825 147.734C21.2492 147.37 21.0825 146.922 21.0825 146.391ZM27.3681 159.453V158.953C27.3681 156.672 27.9619 154.797 29.1494 153.328C30.3369 151.849 31.915 151.109 33.8838 151.109C34.9879 151.109 35.9254 151.302 36.6963 151.688C37.4775 152.062 38.0869 152.562 38.5244 153.188V143.516H41.7588V167H38.7119L38.6338 164.938H38.5869C38.1806 165.594 37.5713 166.156 36.7588 166.625C35.9463 167.083 34.9931 167.312 33.8994 167.312C31.889 167.312 30.2952 166.573 29.1181 165.094C27.9515 163.615 27.3681 161.734 27.3681 159.453ZM30.6806 159.484C30.6806 161.016 31.0088 162.281 31.665 163.281C32.3213 164.271 33.3421 164.766 34.7275 164.766C35.6546 164.766 36.441 164.51 37.0869 164C37.7431 163.49 38.2171 162.901 38.5088 162.234V156.109C38.2275 155.443 37.7588 154.87 37.1025 154.391C36.4567 153.901 35.665 153.656 34.7275 153.656C33.3421 153.656 32.3213 154.156 31.665 155.156C31.0088 156.146 30.6806 157.401 30.6806 158.922V159.484ZM44.3569 159.453V158.953C44.3569 156.578 45.0235 154.661 46.3569 153.203C47.6902 151.734 49.4506 151 51.6381 151C53.8152 151 55.4975 151.688 56.685 153.062C57.8725 154.427 58.4663 156.307 58.4663 158.703V159.875H46.31V157.641H55.2319V157.391C55.2319 156.328 54.935 155.417 54.3413 154.656C53.7579 153.885 52.8673 153.5 51.6694 153.5C50.3256 153.5 49.31 154 48.6225 155C47.9454 156 47.6069 157.271 47.6069 158.812V159.5C47.6069 161.083 47.9715 162.38 48.7006 163.391C49.4298 164.391 50.5131 164.891 51.9506 164.891C52.8985 164.891 53.7058 164.688 54.3725 164.281C55.0496 163.865 55.5913 163.354 55.9975 162.75L58.31 164.219C57.8308 165.073 57.0548 165.823 55.9819 166.469C54.909 167.104 53.5756 167.422 51.9819 167.422C49.5444 167.422 47.6642 166.693 46.3413 165.234C45.0183 163.766 44.3569 161.839 44.3569 159.453ZM60.0331 159.453V158.953C60.0331 156.578 60.7206 154.661 62.0956 153.203C63.481 151.734 65.3196 151 67.6113 151C69.9029 151 71.7415 151.734 73.1269 153.203C74.5123 154.661 75.205 156.578 75.205 158.953V159.453C75.205 161.828 74.5123 163.75 73.1269 165.219C71.7415 166.677 69.9029 167.406 67.6113 167.406C65.3196 167.406 63.481 166.677 62.0956 165.219C60.7206 163.75 60.0331 161.828 60.0331 159.453ZM63.3456 158.875V159.516C63.3456 161.089 63.705 162.375 64.4238 163.375C65.1529 164.365 66.2154 164.859 67.6113 164.859C69.0071 164.859 70.0644 164.365 70.7831 163.375C71.5123 162.375 71.8769 161.089 71.8769 159.516V158.875C71.8769 157.312 71.5123 156.036 70.7831 155.047C70.0644 154.057 69.0071 153.562 67.6113 153.562C66.2154 153.562 65.1529 154.057 64.4238 155.047C63.705 156.036 63.3456 157.312 63.3456 158.875ZM77.0219 158.516V155.703H85.6312V158.516H77.0219ZM113.426 158.516V155.703H122.035V158.516H113.426ZM120.055 146.969V144.25H137.024V146.969H130.227V167H126.868V146.969H120.055ZM135.903 159.453V158.953C135.903 156.578 136.57 154.661 137.903 153.203C139.236 151.734 140.997 151 143.184 151C145.361 151 147.044 151.688 148.231 153.062C149.419 154.427 150.012 156.307 150.012 158.703V159.875H137.856V157.641H146.778V157.391C146.778 156.328 146.481 155.417 145.887 154.656C145.304 153.885 144.414 153.5 143.216 153.5C141.872 153.5 140.856 154 140.169 155C139.492 156 139.153 157.271 139.153 158.812V159.5C139.153 161.083 139.518 162.38 140.247 163.391C140.976 164.391 142.059 164.891 143.497 164.891C144.445 164.891 145.252 164.688 145.919 164.281C146.596 163.865 147.137 163.354 147.544 162.75L149.856 164.219C149.377 165.073 148.601 165.823 147.528 166.469C146.455 167.104 145.122 167.422 143.528 167.422C141.091 167.422 139.21 166.693 137.887 165.234C136.565 163.766 135.903 161.839 135.903 159.453ZM150.626 167L156.439 158.266L156.908 158.203L161.204 151.422H164.486L158.954 159.875L158.454 159.922L153.908 167H150.626ZM150.954 151.422H154.595L158.861 158.188L159.079 158.297L164.861 167H161.22L156.704 159.922L156.501 159.828L150.954 151.422ZM164.646 153.906V151.422H173.912V153.906H164.646ZM167.287 162.75V152.578L167.318 152.219V146.891H170.521V162.531C170.521 163.427 170.667 164.031 170.959 164.344C171.261 164.646 171.714 164.797 172.318 164.797C172.579 164.797 172.834 164.771 173.084 164.719C173.344 164.667 173.599 164.594 173.849 164.5V167C173.599 167.104 173.261 167.198 172.834 167.281C172.417 167.365 171.948 167.406 171.428 167.406C170.146 167.406 169.136 167.047 168.396 166.328C167.657 165.599 167.287 164.406 167.287 162.75Z" fill="white"/>
<path d="M86.2763 153.906V151.422H95.5419V153.906H86.2763ZM88.9169 162.75V152.578L88.9481 152.219V146.891H92.1513V162.531C92.1513 163.427 92.2971 164.031 92.5888 164.344C92.8908 164.646 93.344 164.797 93.9481 164.797C94.2085 164.797 94.4638 164.771 94.7138 164.719C94.9742 164.667 95.2294 164.594 95.4794 164.5V167C95.2294 167.104 94.8908 167.198 94.4638 167.281C94.0471 167.365 93.5783 167.406 93.0575 167.406C91.7763 167.406 90.7658 167.047 90.0263 166.328C89.2867 165.599 88.9169 164.406 88.9169 162.75ZM96.4369 159.453V158.953C96.4369 156.578 97.1244 154.661 98.4994 153.203C99.8848 151.734 101.723 151 104.015 151C106.307 151 108.145 151.734 109.531 153.203C110.916 154.661 111.609 156.578 111.609 158.953V159.453C111.609 161.828 110.916 163.75 109.531 165.219C108.145 166.677 106.307 167.406 104.015 167.406C101.723 167.406 99.8848 166.677 98.4994 165.219C97.1244 163.75 96.4369 161.828 96.4369 159.453ZM99.7494 158.875V159.516C99.7494 161.089 100.109 162.375 100.827 163.375C101.557 164.365 102.619 164.859 104.015 164.859C105.411 164.859 106.468 164.365 107.187 163.375C107.916 162.375 108.281 161.089 108.281 159.516V158.875C108.281 157.312 107.916 156.036 107.187 155.047C106.468 154.057 105.411 153.562 104.015 153.562C102.619 153.562 101.557 154.057 100.827 155.047C100.109 156.036 99.7494 157.312 99.7494 158.875Z" fill="#FFD602"/>
<path d="M17.9611 68.776C15.1114 62.7809 13.592 56.173 13.592 49.4084C13.592 37.4439 18.3449 25.9695 26.805 17.5094C35.2652 9.04926 46.7395 4.29639 58.7039 4.29639C70.6685 4.29639 82.1428 9.04926 90.6028 17.5094C99.0632 25.9695 103.816 37.4439 103.816 49.4084C103.816 61.3729 99.0632 72.8473 90.6028 81.3073C82.1428 89.7677 70.6685 94.5204 58.7039 94.5204C51.9392 94.5204 45.3313 93.0012 39.3362 90.1514L11.0142 97.0982L17.9611 68.776Z" stroke="white" stroke-width="5"/>
<path d="M71.5939 32.2229H35.0747V66.5939H71.5939V58.0012L82.3349 62.2976V36.5193L71.5939 40.8157V32.2229Z" stroke="white" stroke-width="4.04231"/>
<path d="M166.801 101.536C169.483 95.8939 170.913 89.6748 170.913 83.3081C170.913 72.0474 166.44 61.248 158.477 53.2855C150.515 45.323 139.715 40.8497 128.455 40.8497C117.194 40.8497 106.395 45.323 98.4324 53.2855C90.4696 61.248 85.9966 72.0474 85.9966 83.3081C85.9966 94.5688 90.4696 105.368 98.4324 113.331C106.395 121.293 117.194 125.766 128.455 125.766C134.822 125.766 141.041 124.337 146.683 121.654L173.339 128.193L166.801 101.536Z" stroke="white" stroke-width="5"/>
<path d="M146.651 73.199H110.258" stroke="white" stroke-width="4.04365"/>
<path d="M146.651 93.4174H118.345" stroke="white" stroke-width="4.04365"/>
</svg>
